<svg width="961.838" height="212.329" xmlns="http://www.w3.org/2000/svg" fill="none">

 <g>
  <title>Layer 1</title>
  <path id="svg_1" fill-rule="evenodd" fill="#ff007a" d="m3.759,4.707c23.98,29.398 50.309,66.33 54.568,72.304c0.227,0.319 0.39,0.549 0.489,0.686c2.27,3.169 4.144,5.525 5.567,7.314c3.16,3.972 4.097,5.15 2.212,6.233c-1.52,0.873 -3.09,1.161 -4.655,1.161c-1.77,0 -3.765,-0.86 -5.217,-2.252c-1.027,-0.984 -8.051,-11.289 -17.617,-26.28c-7.319,-11.471 -13.444,-20.987 -13.61,-21.146c-0.387,-0.369 -0.38,-0.356 12.864,23.58c8.316,15.03 14.005,26.138 14.005,26.848c0,1.446 -0.39,2.206 -2.156,4.194c-2.943,3.317 -4.258,7.043 -5.208,14.754c-1.064,8.644 -4.058,14.751 -12.354,25.201c-4.856,6.118 -5.651,7.239 -6.876,9.705c-1.544,3.105 -1.968,4.844 -2.14,8.765c-0.182,4.146 0.172,6.824 1.426,10.787c1.098,3.47 2.243,5.762 5.173,10.345c2.528,3.954 3.983,6.893 3.983,8.043c0,0.915 0.173,0.916 4.09,0.023c9.375,-2.139 16.987,-5.899 21.268,-10.508c2.65,-2.853 3.272,-4.428 3.292,-8.337c0.014,-2.557 -0.076,-3.092 -0.76,-4.563c-1.114,-2.395 -3.141,-4.385 -7.61,-7.471c-5.857,-4.044 -8.358,-7.299 -9.049,-11.776c-0.567,-3.673 0.09,-6.265 3.33,-13.123c3.354,-7.099 4.185,-10.124 4.747,-17.28c0.363,-4.623 0.865,-6.446 2.18,-7.909c1.372,-1.526 2.607,-2.043 6,-2.512c5.534,-0.763 9.057,-2.21 11.954,-4.905c2.512,-2.338 3.563,-4.592 3.725,-7.984l0.122,-2.57l-1.404,-1.654c-5.084,-5.988 -75.744,-84.38 -76.057,-84.38c-0.067,0 1.606,2.118 3.718,4.707zm33.309,155.758c1.15,-2.057 0.538,-4.7 -1.385,-5.992c-1.817,-1.22 -4.639,-0.645 -4.639,0.945c0,0.485 0.266,0.838 0.864,1.15c1.009,0.524 1.082,1.113 0.289,2.317c-0.804,1.22 -0.739,2.292 0.182,3.02c1.485,1.175 3.587,0.529 4.688,-1.44l0.001,0zm34.601,-112.14c-2.268,-0.356 -2.364,-0.398 -1.296,-0.563c2.045,-0.318 6.875,0.115 10.204,0.914c7.771,1.866 14.842,6.646 22.39,15.134l2.005,2.255l2.869,-0.465c12.085,-1.962 24.379,-0.403 34.662,4.395c2.829,1.32 7.289,3.948 7.846,4.623c0.177,0.215 0.504,1.6 0.724,3.079c0.764,5.113 0.382,9.033 -1.167,11.961c-0.842,1.593 -0.889,2.098 -0.323,3.462c0.452,1.088 1.713,1.893 2.962,1.891c2.555,-0.003 5.305,-4.176 6.58,-9.981l0.506,-2.306l1.003,1.147c5.5,6.295 9.821,14.88 10.563,20.99l0.193,1.593l-0.924,-1.448c-1.592,-2.492 -3.19,-4.189 -5.238,-5.557c-3.69,-2.467 -7.593,-3.306 -17.927,-3.856c-9.334,-0.497 -14.616,-1.302 -19.854,-3.028c-8.913,-2.935 -13.405,-6.844 -23.992,-20.873c-4.702,-6.231 -7.608,-9.68 -10.5,-12.456c-6.568,-6.308 -13.023,-9.617 -21.286,-10.911zm80.785,13.913c0.235,-4.176 0.796,-6.93 1.923,-9.445c0.446,-0.996 0.864,-1.81 0.928,-1.81c0.065,0 -0.129,0.734 -0.431,1.632c-0.819,2.441 -0.954,5.78 -0.389,9.664c0.716,4.93 1.124,5.64 6.281,10.965c2.419,2.497 5.233,5.646 6.253,6.999l1.855,2.458l-1.855,-1.757c-2.268,-2.149 -7.484,-6.34 -8.636,-6.938c-0.773,-0.402 -0.888,-0.395 -1.364,0.084c-0.439,0.441 -0.532,1.105 -0.593,4.24c-0.095,4.888 -0.754,8.026 -2.346,11.162c-0.861,1.697 -0.997,1.335 -0.218,-0.58c0.582,-1.43 0.641,-2.059 0.637,-6.79c-0.009,-9.507 -1.127,-11.792 -7.68,-15.707c-1.659,-0.992 -4.395,-2.423 -6.078,-3.18c-1.682,-0.756 -3.019,-1.415 -2.971,-1.464c0.186,-0.187 6.577,1.697 9.149,2.697c3.826,1.486 4.457,1.679 4.922,1.5c0.311,-0.12 0.462,-1.037 0.613,-3.73zm-83.216,-7.299c-0.617,7.34 2.232,17.158 6.837,23.562c3.57,4.964 9.104,8.822 13.19,9.194c2.674,0.244 3.478,-0.602 2.268,-2.387c-1.68,-2.478 -3.747,-6.294 -4.294,-7.928c-0.34,-1.015 -1.077,-4.013 -1.64,-6.662c-1.921,-9.045 -3.81,-12.568 -8.17,-15.243c-1.59,-0.975 -4.984,-2.251 -6.952,-2.614l-1.048,-0.193l-0.191,2.271zm77.631,71.222c-21.521,-8.752 -29.101,-16.349 -29.101,-29.167c0,-1.887 0.065,-3.43 0.143,-3.43c0.079,0 0.911,0.623 1.85,1.384c4.364,3.535 9.251,5.045 22.78,7.038c7.96,1.174 12.44,2.121 16.573,3.506c13.135,4.4 21.262,13.329 23.2,25.492c0.563,3.534 0.233,10.161 -0.68,13.654c-0.721,2.759 -2.921,7.731 -3.504,7.922c-0.162,0.053 -0.321,-0.573 -0.362,-1.425c-0.221,-4.567 -2.506,-9.013 -6.343,-12.344c-4.363,-3.787 -10.225,-6.801 -24.556,-12.63zm-16.148,-0.963c0.302,0.909 0.77,2.978 1.039,4.599c1.724,10.362 -3.661,18.734 -14.136,21.978c-1.109,0.343 -5.477,1.207 -9.707,1.918c-8.563,1.44 -12.384,2.46 -16.223,4.328c-2.723,1.325 -6.02,3.309 -5.824,3.506c0.063,0.064 0.685,-0.086 1.381,-0.333c4.842,-1.717 10.23,-2.606 18.416,-3.036c3.249,-0.17 6.944,-0.442 8.212,-0.603c7.293,-0.928 12.348,-3.166 16.279,-7.207c2.187,-2.249 3.491,-4.344 4.542,-7.298c0.666,-1.874 0.756,-2.57 0.761,-5.89c0.006,-3.383 -0.075,-4.002 -0.797,-6.083c-0.945,-2.728 -2.06,-4.775 -3.472,-6.376l-1.02,-1.156l0.549,1.653zm10.905,22.296c-2.86,-6.209 -3.516,-12.203 -1.95,-17.793c0.168,-0.598 0.437,-1.087 0.6,-1.087c0.162,0 0.836,0.369 1.499,0.819c1.317,0.896 3.96,2.405 11,6.282c8.786,4.838 13.795,8.584 17.201,12.865c2.983,3.748 4.829,8.017 5.717,13.223c0.504,2.949 0.209,10.045 -0.54,13.014c-2.362,9.363 -7.852,16.717 -15.682,21.009c-1.147,0.628 -2.177,1.144 -2.289,1.147c-0.111,0.002 0.307,-1.071 0.929,-2.386c2.634,-5.562 2.934,-10.972 0.943,-16.993c-1.22,-3.687 -3.706,-8.186 -8.726,-15.79c-5.836,-8.84 -7.267,-11.193 -8.702,-14.31zm-53.86,20.364c-9.05,1.485 -18.988,6.323 -26.974,13.134l-2.377,2.028l2.09,0.33c10.903,1.719 13.84,3.244 21.403,11.114c4.352,4.528 5.822,5.536 9.433,6.467c5.302,1.367 10.529,-1.145 12.322,-5.923c0.801,-2.135 0.694,-5.67 -0.225,-7.445c-2.186,-4.227 -8.555,-5.593 -11.634,-2.497c-2.566,2.579 -1.818,6.464 1.372,7.132c0.73,0.154 0.71,0.121 -0.186,-0.288c-1.396,-0.638 -2.003,-1.522 -2.01,-2.929c-0.018,-3.299 3.72,-5.151 7.196,-3.567c2.546,1.161 3.557,2.677 3.557,5.335c0,4.093 -3.449,7.177 -7.462,6.673c-2.146,-0.27 -4.77,-1.656 -6.176,-3.262c-3.54,-4.043 -2.161,-10.423 2.781,-12.871c3.763,-1.863 8.765,-1.404 12.643,1.161c4.456,2.948 6.351,5.642 10.189,14.484c1.25,2.879 2.858,6.12 3.573,7.202c3.636,5.497 7.992,8.193 13.239,8.193c2.894,0 5.071,-0.534 7.81,-1.915c2.035,-1.027 4.92,-2.978 4.712,-3.187c-0.059,-0.059 -0.903,0.206 -1.876,0.589c-5.729,2.257 -11.553,2.102 -14.935,-0.399c-2.13,-1.574 -3.848,-4.71 -4.731,-8.632c-0.153,-0.679 -0.657,-3.677 -1.121,-6.663c-1.176,-7.568 -2.305,-10.97 -4.938,-14.874c-2.694,-3.994 -7.873,-7.346 -13.663,-8.843c-3.612,-0.934 -10.11,-1.188 -14.012,-0.547zm-12.676,-58.513c0.781,-2.916 3.306,-5.697 5.904,-6.503c1.652,-0.512 5.066,-0.185 6.672,0.639c3.11,1.598 5.37,5.237 4.88,7.864c-0.599,3.203 -5.741,5.766 -11.657,5.808c-3.022,0.021 -4.137,-0.389 -5.291,-1.945c-0.715,-0.964 -0.985,-4.084 -0.508,-5.863zm11.781,-4.722c1.552,0.957 1.95,2.372 1.039,3.681c-0.629,0.902 -2.574,1.759 -3.996,1.759c-2.136,0 -4.466,-1.532 -4.466,-2.935c0,-2.819 4.469,-4.328 7.423,-2.505zm463.7,8.072c-4.826,-16.052 3.133,-29.368 20.115,-33.646c4.87,-1.228 26.923,-0.674 30.701,0.771c1.388,0.53 1.992,2.563 2.005,6.741c0.009,3.29 0.368,7.287 0.796,8.88c0.65,2.417 0.27,2.892 -2.279,2.853c-2.306,-0.036 -3.7,-1.387 -5.647,-5.475c-3.109,-6.53 -6.874,-8.606 -15.647,-8.63c-11.2,-0.033 -19.395,7.508 -18.061,16.619c0.869,5.929 6.793,11.763 20.087,19.783c12.649,7.629 20.032,13.903 22.973,19.524c7.866,15.028 1.149,31.11 -16.376,39.213c-8.996,4.159 -24.073,4.589 -34.673,0.989l-6.788,-2.306l0,-10.846c0,-9.823 0.234,-10.848 2.473,-10.848c1.873,0 2.682,1.238 3.339,5.116c1.636,9.643 8.964,15.497 19.401,15.497c10.224,0 17.371,-5.586 20.109,-15.715c1.166,-4.315 0.965,-5.906 -1.348,-10.666c-2.772,-5.707 -7.545,-9.494 -23.756,-18.846c-8.995,-5.19 -15.356,-12.129 -17.424,-19.008zm-317.78,-27.238c-2.212,0 -3.075,-0.723 -3.075,-2.577c0,-2.454 0.863,-2.576 18.196,-2.576c16.088,0 18.147,0.242 17.778,2.088c-0.231,1.15 -2.454,2.743 -4.943,3.543l-4.526,1.454l-0.386,32.854c-0.259,21.922 0.105,34.568 1.092,38.006c2.935,10.225 11.888,16.105 24.52,16.105c8.794,0 13.931,-2.056 20.385,-8.162c6.942,-6.564 8.049,-12.801 8.027,-45.217c-0.021,-31.975 -0.578,-34.614 -7.445,-35.277c-3.125,-0.303 -4.172,-1.03 -4.172,-2.899c0,-2.33 1.031,-2.495 15.515,-2.495c14.653,0 15.515,0.143 15.515,2.576c0,1.588 -0.869,2.585 -2.263,2.596c-5.988,0.053 -6.098,0.623 -6.904,35.684c-0.836,36.41 -1.617,40.721 -8.996,49.64c-2.128,2.573 -7.203,6.309 -11.277,8.303c-6.639,3.249 -8.751,3.622 -20.338,3.601c-10.681,-0.022 -14.053,-0.538 -19.394,-2.969c-7.796,-3.549 -12.866,-8.142 -16.604,-15.044c-2.609,-4.818 -2.832,-7.425 -3.436,-40.068c-0.692,-37.365 -1.027,-39.166 -7.269,-39.166zm120.986,0c-2.956,0 -3.818,-0.582 -3.818,-2.577c0,-2.415 0.826,-2.57 13.252,-2.47l13.253,0.105l6.341,7.302c3.485,4.016 14.849,16.579 25.25,27.916c10.402,11.338 22.344,24.527 26.537,29.31c4.194,4.784 8.141,8.697 8.772,8.697c0.648,0 0.971,-13.512 0.74,-31.034l-0.408,-31.034l-3.628,-3.107c-1.995,-1.71 -5.048,-3.108 -6.787,-3.108c-2.313,0 -3.16,-0.7 -3.16,-2.613c0,-2.516 0.66,-2.6 17.777,-2.254c14.555,0.293 17.778,0.7 17.778,2.238c0,1.096 -1.8,2.246 -4.322,2.76c-2.376,0.485 -4.995,1.552 -5.818,2.371c-1.062,1.058 -1.603,14.734 -1.866,47.163l-0.371,45.673l-3.747,0c-3.226,0 -7.066,-3.63 -27.596,-26.089c-13.117,-14.35 -28.428,-31.404 -34.024,-37.898c-5.597,-6.495 -10.612,-11.858 -11.145,-11.917c-1.501,-0.168 -1.138,57.858 0.397,63.366c1.197,4.292 2.02,5.031 7.105,6.387c4.095,1.091 5.751,2.198 5.751,3.842c0,2.111 -1.561,2.309 -18.101,2.309c-16.837,0 -18.101,-0.168 -18.101,-2.415c0,-1.645 1.218,-2.658 3.82,-3.177c7.895,-1.573 8.419,-4.07 8.862,-42.24c0.248,-21.378 -0.116,-36.336 -0.963,-39.468c-1.488,-5.507 -5.196,-8.038 -11.78,-8.038zm135.572,0c-2.77,0 -3.632,-0.612 -3.632,-2.577c0,-2.462 0.862,-2.576 19.394,-2.576c18.531,0 19.394,0.114 19.394,2.576c0,1.89 -0.863,2.577 -3.233,2.577c-1.777,0 -4.419,1.183 -5.87,2.628c-2.561,2.553 -2.627,3.822 -2.262,43.266c0.355,38.505 0.507,40.733 2.884,42.464c1.381,1.005 3.853,1.827 5.495,1.827c2.123,0 2.986,0.743 2.986,2.577c0,2.462 -0.863,2.576 -19.394,2.576c-18.091,0 -19.394,-0.162 -19.394,-2.411c0,-1.814 1.269,-2.615 5.122,-3.229c7.651,-1.219 8.042,-3.715 7.565,-48.254c-0.381,-35.668 -0.545,-37.892 -2.914,-39.617c-1.381,-1.005 -4.144,-1.827 -6.141,-1.827zm135.283,0c-1.769,0 -3.114,-0.98 -3.533,-2.577c-0.652,-2.491 -0.038,-2.576 18.598,-2.576c18.41,0 19.272,0.114 19.272,2.576c0,1.98 -0.862,2.577 -3.721,2.577c-8.139,0 -7.956,1.474 4.363,35.167c6.269,17.151 12.358,33.443 13.528,36.204l2.127,5.021l9.875,-26.279c11.625,-30.933 13.135,-36.654 11.161,-42.295c-1.376,-3.932 -6.726,-7.818 -10.763,-7.818c-1.141,0 -2.004,-1.108 -2.004,-2.577c0,-2.466 0.863,-2.576 20.041,-2.576s20.04,0.11 20.04,2.576c0,1.834 -0.862,2.577 -2.985,2.577c-5.436,0 -7.833,2.889 -7.052,8.5c0.804,5.778 23.041,67.867 23.974,66.938c1.517,-1.511 26.144,-68.35 26.144,-70.956c0,-3.121 -2.192,-4.482 -7.217,-4.482c-2.264,0 -3.127,-0.71 -3.127,-2.577c0,-2.433 0.863,-2.576 15.516,-2.576c13.16,0 15.515,0.304 15.515,2c0,1.1 -1.612,2.56 -3.583,3.243c-4.432,1.54 -5.545,3.297 -11.105,17.532c-2.441,6.251 -10.082,25.815 -16.981,43.473a40462.124,40462.124 0 0 0 -13.201,33.82c-0.363,0.942 -2.501,1.712 -4.753,1.712l-4.092,0l-9.287,-24.157a15476.108,15476.108 0 0 1 -13.41,-34.977c-3.886,-10.199 -4.212,-10.642 -5.674,-7.731c-0.853,1.701 -6.989,17.469 -13.638,35.041l-12.086,31.95l-4.511,-0.385l-4.511,-0.385l-17.205,-44.992c-9.612,-25.137 -18.451,-46.317 -20.031,-47.992c-1.556,-1.65 -4.113,-2.999 -5.684,-2.999zm258.524,0.546c-0.216,-0.489 -0.215,-2.248 -0.215,-2.248s-0.049,-0.634 0.217,-0.973c0.265,-0.337 0.359,-0.346 1.31,-0.436l0.009,-0.001c3.491,-0.332 10.495,-0.891 16.34,-1.146c0.535,-0.023 1.13,-0.05 1.777,-0.08l0.026,0c6.433,-0.293 17.944,-0.683 25.856,-0.288c15.18,0.759 25.977,8.096 29.656,20.222c3.68,12.125 1.734,23.507 -3.281,30.752c-5.016,7.245 -13.449,13.483 -27.467,13.077c-11.572,-0.335 -14.669,-2.502 -17.143,-4.233c-0.523,-0.366 -1.018,-0.713 -1.559,-1.018l0,15.463c0.122,10.546 0.21,15.611 1.027,17.486c1.1,2.524 3.587,4.079 8.433,5.271c0,0 2.192,0.514 2.758,1.062c0.565,0.548 0.565,1.765 0.565,1.765s0.116,1.138 -0.338,1.718c-0.455,0.58 -1.332,0.464 -1.332,0.464l-21.46,-0.173l-12.939,-0.034s-1.358,0.26 -1.867,-0.286c-0.509,-0.547 -0.462,-1.686 -0.462,-1.686s0.112,-1.227 0.706,-1.776c0.594,-0.55 2.803,-1.164 2.803,-1.164c4.99,-1.401 7.154,-2.883 8.285,-5.675c0.911,-2.251 0.917,-6.425 0.908,-40.488c-0.009,-32.303 -0.056,-38.329 -0.797,-40.062c-1.096,-2.565 -3.841,-3.245 -7.749,-4.213l-0.002,0c-0.774,-0.192 -1.595,-0.395 -2.457,-0.626c0,0 -1.391,-0.184 -1.608,-0.674zm62.486,26.359c0,5.297 -0.093,13.59 -5.732,18.891s-16.742,6.752 -24.279,5.276c-2.376,-0.465 -3.734,-1.182 -4.781,-1.735l-0.105,-0.055l-1.929,-1.016l-0.112,-18.611c-0.07,-11.661 0.052,-19.258 0.327,-20.344c0.251,-6.15 9.32,-6.914 13.752,-6.686c18.959,0 22.306,15.974 22.859,24.28zm-122.021,-31.337s-0.926,0.356 -2.33,0.888l-5.062,2.615l-3.646,9.1c-2.004,5.006 -5.672,14.194 -8.149,20.419a5861.773,5861.773 0 0 1 -10.628,26.562c-0.922,2.287 -3.707,9.251 -6.189,15.476c-2.481,6.224 -4.961,12.148 -5.511,13.164c-0.092,0.169 -0.189,0.351 -0.291,0.543c-1.387,2.608 -3.798,7.138 -8.055,7.823c0,0 -2.34,0.23 -3.207,1.086c-0.867,0.857 -0.783,1.557 -0.783,1.557l0,1.079s0.079,0.523 0.57,0.783c0.491,0.261 1.156,0.276 1.156,0.276l15.571,-0.177l16.094,0s1.138,0.133 1.577,-0.231s0.56,-0.904 0.56,-0.904l0,-1.136s-0.224,-1.232 -0.861,-1.713c-0.637,-0.48 -3.026,-0.809 -3.026,-0.809c-6.443,-0.847 -7.552,-5.72 -6.757,-10.102c0.391,-2.153 2.98,-10.117 5.896,-18.135l1.009,-2.771l16.863,-0.129c9.275,-0.071 17.283,-0.023 17.795,0.107c0.732,0.185 1.757,2.266 4.766,9.678c4.559,11.23 4.923,12.598 3.914,14.699c-0.062,0.128 -0.127,0.269 -0.198,0.421c-0.947,2.032 -2.786,5.98 -7.42,6.382c0,0 -2.458,0.085 -3.07,0.82c-0.611,0.736 -0.479,1.582 -0.479,1.582l0,1.124s0.164,0.659 0.479,0.92c0.316,0.261 0.85,0.195 0.85,0.195l15.307,-0.11l21.517,-0.001s0.844,0.09 1.074,-0.234c0.229,-0.325 0.277,-0.707 0.277,-0.707l0,-1.493s-0.094,-0.794 -0.508,-1.232c-0.413,-0.437 -3.204,-0.899 -3.204,-0.899c-3.564,-0.575 -5.339,-3.517 -6.661,-5.708c-0.337,-0.559 -0.645,-1.069 -0.945,-1.478c-0.613,-0.835 -2.801,-5.411 -4.515,-9.812c-1.713,-4.401 -5.579,-14.343 -8.59,-22.092c-3.012,-7.749 -7.215,-18.559 -9.34,-24.021a45390.294,45390.294 0 0 1 -10.219,-26.31l-0.001,-0.004c-1.885,-4.863 -2.645,-6.825 -2.854,-7.09c-0.677,-0.863 -2.776,0 -2.776,0l0,-0.001zm-1.002,29.591a687.123,687.123 0 0 1 -2.656,-6.582c-1.42,-3.579 -1.959,-4.403 -2.399,-3.664c-0.128,0.216 -1.022,2.662 -1.986,5.436c-6.24,17.96 -9.066,26.047 -9.633,27.571c-0.356,0.958 -0.647,1.945 -0.647,2.194c0,0.286 5.076,0.453 13.772,0.453c7.574,0 13.771,-0.094 13.771,-0.209s-0.675,-1.829 -1.501,-3.811s-2.848,-6.929 -4.493,-10.994s-3.548,-8.742 -4.228,-10.394z" clip-rule="evenodd"/>
 </g>
</svg>